<svg width="58" height="22" viewBox="0 0 58 22" fill="none" xmlns="http://www.w3.org/2000/svg">
<rect width="58" height="22" fill="#444C37"/>
<path d="M16.7 15V5.2H19.85C20.6993 5.2 21.3807 5.438 21.894 5.914C22.4167 6.38067 22.678 7.01067 22.678 7.804C22.678 8.65333 22.384 9.31133 21.796 9.778C22.2347 10.002 22.5753 10.324 22.818 10.744C23.07 11.164 23.196 11.6493 23.196 12.2C23.196 13.0493 22.916 13.7307 22.356 14.244C21.796 14.748 21.0587 15 20.144 15H16.7ZM20.956 13.026C21.1893 12.7833 21.306 12.4613 21.306 12.06C21.306 11.6587 21.1893 11.3367 20.956 11.094C20.732 10.8513 20.4333 10.73 20.06 10.73H18.66V13.39H20.06C20.4333 13.39 20.732 13.2687 20.956 13.026ZM20.494 8.812C20.69 8.59733 20.788 8.31733 20.788 7.972C20.788 7.62667 20.69 7.34667 20.494 7.132C20.298 6.91733 20.0367 6.81 19.71 6.81H18.66V9.12H19.71C20.0367 9.12 20.298 9.01733 20.494 8.812ZM30.4143 12.41H26.2563C26.4523 13.1567 26.9703 13.53 27.8103 13.53C28.3423 13.53 28.7483 13.376 29.0283 13.068L30.1063 14.174C29.481 14.818 28.669 15.14 27.6703 15.14C26.6623 15.14 25.8503 14.8367 25.2343 14.23C24.6183 13.6233 24.3103 12.816 24.3103 11.808C24.3103 10.8467 24.595 10.0673 25.1643 9.47C25.743 8.86333 26.5036 8.56 27.4463 8.56C28.4076 8.56 29.1403 8.896 29.6443 9.568C30.1576 10.24 30.4143 11.1873 30.4143 12.41ZM27.4883 10.128C27.171 10.128 26.905 10.2213 26.6903 10.408C26.4756 10.5947 26.331 10.8513 26.2563 11.178H28.5943C28.4543 10.478 28.0856 10.128 27.4883 10.128ZM30.9805 10.1V8.7H31.6805V7.3H33.5705V8.7H34.8305V10.1H33.5705V12.69C33.5705 12.97 33.6452 13.194 33.7945 13.362C33.9532 13.53 34.1585 13.614 34.4105 13.614C34.5692 13.614 34.7092 13.5813 34.8305 13.516V15C34.6345 15.0933 34.3732 15.14 34.0465 15.14C33.3185 15.14 32.7399 14.9207 32.3105 14.482C31.8905 14.0433 31.6805 13.446 31.6805 12.69V10.1H30.9805ZM41.2964 13.81V15C41.1564 15.056 40.9557 15.084 40.6944 15.084C40.041 15.084 39.579 14.8413 39.3084 14.356C38.8417 14.8787 38.2724 15.14 37.6004 15.14C37.0404 15.14 36.5924 14.9627 36.2564 14.608C35.9204 14.244 35.7524 13.8053 35.7524 13.292C35.7524 12.6107 36.037 12.0833 36.6064 11.71C37.185 11.3367 37.8804 11.15 38.6924 11.15C38.851 11.15 38.9864 11.1593 39.0984 11.178V10.87C39.0984 10.6553 39.019 10.464 38.8604 10.296C38.7017 10.1187 38.4777 10.03 38.1884 10.03C37.983 10.03 37.7684 10.0767 37.5444 10.17C37.3204 10.254 37.1477 10.3613 37.0264 10.492L36.0604 9.526C36.723 8.882 37.4884 8.56 38.3564 8.56C39.131 8.56 39.7517 8.77933 40.2184 9.218C40.685 9.65667 40.9184 10.2073 40.9184 10.87V13.376C40.9184 13.5067 40.951 13.614 41.0164 13.698C41.091 13.7727 41.1844 13.81 41.2964 13.81ZM38.2304 13.67C38.5757 13.67 38.865 13.5347 39.0984 13.264V12.368C38.9957 12.34 38.893 12.326 38.7904 12.326C38.4637 12.326 38.179 12.396 37.9364 12.536C37.703 12.6667 37.5864 12.8487 37.5864 13.082C37.5864 13.2313 37.6377 13.3667 37.7404 13.488C37.8524 13.6093 38.0157 13.67 38.2304 13.67Z" fill="#232323"/>
</svg>
