<svg width="64" height="64" viewBox="0 0 64 64" fill="none" xmlns="http://www.w3.org/2000/svg">
<path d="M62.846 31.466C62.343 30.671 50.34 12 32 12C13.66 12 1.657 30.671 1.154 31.466C1.05306 31.6258 0.999481 31.811 0.999481 32C0.999481 32.189 1.05306 32.3742 1.154 32.534C1.657 33.329 13.66 52 32 52C50.34 52 62.343 33.329 62.846 32.534C62.9469 32.3742 63.0005 32.189 63.0005 32C63.0005 31.811 62.9469 31.6258 62.846 31.466Z" fill="#E1EBD3"/>
<path d="M32 47C40.2843 47 47 40.2843 47 32C47 23.7157 40.2843 17 32 17C23.7157 17 17 23.7157 17 32C17 40.2843 23.7157 47 32 47Z" fill="#ACB79B"/>
<path d="M41.9 30.56C41.613 28.5508 40.7195 26.6771 39.3388 25.1894C37.9582 23.7017 36.1563 22.671 34.174 22.235C32.4981 21.8686 30.7565 21.9343 29.113 22.426C28.8476 22.5049 28.6018 22.6391 28.3919 22.8197C28.1819 23.0003 28.0126 23.2233 27.895 23.474C27.7654 23.7504 27.6947 24.0508 27.6874 24.3561C27.6802 24.6613 27.7366 24.9647 27.853 25.247C27.9999 25.6107 28.0367 26.0096 27.9587 26.394C27.8806 26.7784 27.6913 27.1314 27.4142 27.409C27.1371 27.6867 26.7845 27.8767 26.4002 27.9555C26.0159 28.0342 25.617 27.9982 25.253 27.852C24.9706 27.7354 24.667 27.679 24.3616 27.6862C24.0562 27.6934 23.7556 27.7642 23.479 27.894C23.2284 28.0116 23.0055 28.1808 22.8249 28.3905C22.6443 28.6002 22.5101 28.8458 22.431 29.111C21.9394 30.7549 21.8736 32.4968 22.24 34.173C22.6755 36.1547 23.7054 37.9564 25.1921 39.3371C26.6788 40.7179 28.5515 41.612 30.56 41.9C31.0371 41.9668 31.5183 42.0002 32 42C33.4353 42.0006 34.8539 41.6923 36.1594 41.0959C37.4649 40.4995 38.6267 39.6291 39.5659 38.5438C40.5051 37.4585 41.1997 36.1837 41.6025 34.8061C42.0052 33.4285 42.1067 31.9803 41.9 30.56Z" fill="#E4EBD9"/>
<path d="M62 47H58C57.7348 47 57.4804 47.1054 57.2929 47.2929C57.1054 47.4804 57 47.7348 57 48V57H48C47.7348 57 47.4804 57.1054 47.2929 57.2929C47.1054 57.4804 47 57.7348 47 58V62C47 62.2652 47.1054 62.5196 47.2929 62.7071C47.4804 62.8946 47.7348 63 48 63H58C59.3256 62.9984 60.5964 62.4711 61.5338 61.5338C62.4711 60.5964 62.9984 59.3256 63 58V48C63 47.7348 62.8946 47.4804 62.7071 47.2929C62.5196 47.1054 62.2652 47 62 47Z" fill="#899771"/>
<path d="M58 1H48C47.7348 1 47.4804 1.10536 47.2929 1.29289C47.1054 1.48043 47 1.73478 47 2V6C47 6.26522 47.1054 6.51957 47.2929 6.70711C47.4804 6.89464 47.7348 7 48 7H57V16C57 16.2652 57.1054 16.5196 57.2929 16.7071C57.4804 16.8946 57.7348 17 58 17H62C62.2652 17 62.5196 16.8946 62.7071 16.7071C62.8946 16.5196 63 16.2652 63 16V6C62.9984 4.67441 62.4711 3.40356 61.5338 2.46622C60.5964 1.52888 59.3256 1.00159 58 1Z" fill="#899771"/>
<path d="M16 57H7V48C7 47.7348 6.89464 47.4804 6.70711 47.2929C6.51957 47.1054 6.26522 47 6 47H2C1.73478 47 1.48043 47.1054 1.29289 47.2929C1.10536 47.4804 1 47.7348 1 48V58C1.00159 59.3256 1.52888 60.5964 2.46622 61.5338C3.40356 62.4711 4.67441 62.9984 6 63H16C16.2652 63 16.5196 62.8946 16.7071 62.7071C16.8946 62.5196 17 62.2652 17 62V58C17 57.7348 16.8946 57.4804 16.7071 57.2929C16.5196 57.1054 16.2652 57 16 57Z" fill="#899771"/>
<path d="M16 1H6C4.67441 1.00159 3.40356 1.52888 2.46622 2.46622C1.52888 3.40356 1.00159 4.67441 1 6V16C1 16.2652 1.10536 16.5196 1.29289 16.7071C1.48043 16.8946 1.73478 17 2 17H6C6.26522 17 6.51957 16.8946 6.70711 16.7071C6.89464 16.5196 7 16.2652 7 16V7H16C16.2652 7 16.5196 6.89464 16.7071 6.70711C16.8946 6.51957 17 6.26522 17 6V2C17 1.73478 16.8946 1.48043 16.7071 1.29289C16.5196 1.10536 16.2652 1 16 1Z" fill="#899771"/>
<path d="M62 39H2C1.73478 39 1.48043 38.8946 1.29289 38.7071C1.10536 38.5196 1 38.2652 1 38C1 37.7348 1.10536 37.4804 1.29289 37.2929C1.48043 37.1054 1.73478 37 2 37H62C62.2652 37 62.5196 37.1054 62.7071 37.2929C62.8946 37.4804 63 37.7348 63 38C63 38.2652 62.8946 38.5196 62.7071 38.7071C62.5196 38.8946 62.2652 39 62 39Z" fill="#899771"/>
<path d="M46.2 12.338C46.0506 12.3376 45.9033 12.3034 45.769 12.238C41.4901 10.1167 36.7789 9.01302 32.003 9.01302C27.2272 9.01302 22.5159 10.1167 18.237 12.238C18.1177 12.305 17.986 12.3468 17.8499 12.3608C17.7138 12.3749 17.5763 12.3608 17.4458 12.3196C17.3154 12.2784 17.1948 12.2108 17.0915 12.1211C16.9882 12.0314 16.9045 11.9214 16.8454 11.798C16.7863 11.6746 16.7531 11.5404 16.748 11.4037C16.7428 11.267 16.7658 11.1307 16.8154 11.0032C16.8651 10.8757 16.9404 10.7598 17.0366 10.6626C17.1329 10.5654 17.248 10.4889 17.375 10.438C21.9231 8.18829 26.9289 7.01794 32.003 7.01794C37.0771 7.01794 42.0829 8.18829 46.631 10.438C46.8344 10.5365 46.9984 10.7009 47.0963 10.9045C47.1942 11.1081 47.2203 11.3389 47.1704 11.5592C47.1204 11.7796 46.9973 11.9765 46.8211 12.1179C46.6448 12.2593 46.4259 12.3369 46.2 12.338Z" fill="#899771"/>
<path d="M32 57C26.9278 56.9678 21.9281 55.7934 17.372 53.564C17.245 53.5131 17.1298 53.4366 17.0336 53.3394C16.9373 53.2422 16.8621 53.1262 16.8124 52.9987C16.7628 52.8713 16.7398 52.735 16.745 52.5982C16.7501 52.4615 16.7833 52.3273 16.8424 52.204C16.9014 52.0806 16.9852 51.9706 17.0885 51.8809C17.1918 51.7912 17.3124 51.7236 17.4428 51.6824C17.5733 51.6411 17.7108 51.6271 17.8469 51.6411C17.9829 51.6552 18.1147 51.697 18.234 51.764C22.5129 53.8853 27.2241 54.989 32 54.989C36.7758 54.989 41.4871 53.8853 45.766 51.764C45.8853 51.697 46.017 51.6552 46.1531 51.6411C46.2892 51.6271 46.4267 51.6411 46.5571 51.6824C46.6876 51.7236 46.8082 51.7912 46.9115 51.8809C47.0148 51.9706 47.0985 52.0806 47.1576 52.204C47.2167 52.3273 47.2499 52.4615 47.255 52.5982C47.2601 52.735 47.2372 52.8713 47.1875 52.9987C47.1379 53.1262 47.0626 53.2422 46.9664 53.3394C46.8701 53.4366 46.755 53.5131 46.628 53.564C42.0719 55.7934 37.0722 56.9678 32 57Z" fill="#899771"/>
</svg>
