<svg width="245" height="60" viewBox="0 0 245 60" fill="none" xmlns="http://www.w3.org/2000/svg">
<g clip-path="url(#clip0_32_148)">
<path d="M18.0952 0.14917C16.7015 1.72827 15.852 3.79395 15.852 6.0626C15.9343 11.0432 16.5459 16.0178 16.5998 20.988C16.7104 25.6298 15.3166 29.988 13.6208 34.2417C13.0555 35.4163 12.4453 36.5656 11.8337 37.7178L10.0391 37.3566C8.41952 37.0342 7.36671 35.4626 7.69122 33.8462C7.97387 32.4328 9.22109 31.4432 10.6119 31.4432L11.2669 31.5133L9.80583 19.3342C9.32877 13.9163 6.52625 9.15514 2.40323 6.06559C1.69437 5.53424 0.942149 5.04768 0.160016 4.61932V47.8581H10.1617C10.9095 51.9029 13.1437 55.4402 16.2842 57.8581C17.0305 58.3716 17.6571 59.0492 18.1072 59.8402C18.5558 59.0492 19.1824 58.3716 19.9302 57.8581C23.0707 55.4342 25.3049 51.9044 26.0527 47.8581H36.0544V4.61932C35.2723 5.04768 34.52 5.53424 33.8112 6.06559C29.6837 9.15962 26.8871 13.9163 26.4086 19.3342L24.9475 31.5133L25.6025 31.4432C26.9933 31.4492 28.2405 32.4313 28.5232 33.8462C28.8462 35.4626 27.7934 37.0327 26.1753 37.3566L24.3807 37.7178C23.7691 36.5671 23.1574 35.4178 22.5936 34.2417C20.8963 29.991 19.5025 25.6327 19.6131 20.988C19.667 16.0029 20.2786 11.0328 20.3609 6.0626C20.3609 3.79395 19.5115 1.73424 18.1177 0.14917H18.0952ZM3.1405 10.8507C5.07564 13.1178 6.37521 15.9402 6.75954 19.0492L7.95592 29.0939C6.42306 29.8551 5.26407 31.2522 4.8244 32.9432H3.13003V10.8536L3.1405 10.8507ZM33.05 10.8507V32.9402H31.3556C30.9189 31.2507 29.7569 29.8536 28.2241 29.091L29.4205 19.0462C29.8078 15.9402 31.1074 13.1148 33.0395 10.8462L33.05 10.8507ZM18.0952 31.0447C18.8983 33.6671 20.0035 36.1641 21.3778 38.4745C20.0708 38.8701 18.9342 39.6402 18.0952 40.6775C17.2563 39.6402 16.1197 38.8716 14.8127 38.473C16.187 36.1581 17.2922 33.6671 18.0952 31.0447ZM3.1405 35.9313H4.83487C5.36875 37.9925 6.98087 39.6193 9.0222 40.188L10.4593 40.5148C10.075 41.9059 9.86415 43.3656 9.86415 44.888H3.13451V35.9328L3.1405 35.9313ZM31.3601 35.9313H33.0545V44.8865H26.3248C26.3248 43.373 26.114 41.9059 25.7296 40.5133L27.1668 40.1865C29.2156 39.6178 30.8262 37.9895 31.3541 35.9298L31.3601 35.9313ZM13.3845 41.1999C15.1985 41.4551 16.5968 43.0059 16.5968 44.885H12.8581C12.8581 43.6059 13.048 42.3716 13.3845 41.1999ZM22.8015 41.1999C23.138 42.3716 23.3279 43.6029 23.3279 44.885H19.5892C19.5892 43.0029 20.9875 41.4551 22.8015 41.1999ZM13.2006 47.8716H16.5998V54.1551C14.9547 52.4313 13.7584 50.2745 13.2006 47.8716ZM19.5907 47.8716H22.9899C22.4396 50.2745 21.2402 52.4342 19.5907 54.1551V47.8716Z" fill="#444C37"/>
</g>
<path fill-rule="evenodd" clip-rule="evenodd" d="M104.063 0H78.2352L52.3184 3.29326e-06C52.3184 2.58698 52.2856 5.15261 52.2532 7.68486C51.9518 31.2434 51.6874 51.9125 78.2352 60C104.692 51.9125 104.428 31.2434 104.128 7.68486C104.096 5.15261 104.063 2.58698 104.063 0Z" fill="#AF8742"/>
<path fill-rule="evenodd" clip-rule="evenodd" d="M102.078 1.72656H78.1872L54.2141 1.72657C54.2141 4.16465 54.1838 6.58262 54.1538 8.96913C53.875 31.1718 53.6304 50.6513 78.1872 58.2733C102.66 50.6513 102.416 31.1718 102.138 8.96913C102.108 6.58262 102.078 4.16465 102.078 1.72656Z" fill="#232323"/>
<path fill-rule="evenodd" clip-rule="evenodd" d="M101.805 26.9675L95.1947 33.4533L93.1048 28.3813L80.1257 40.6835L82.2155 45.7554L78.1458 49.7482L74.076 45.7554L76.1659 40.6835L63.1867 28.3813L61.0969 33.4533L54.4876 26.969C54.692 29.3281 54.9952 31.6127 55.4383 33.8078L62.1968 40.2518L64.2867 35.1799L71.7662 42.4101L69.5663 47.3741L78.1458 55.4677L86.7252 47.3741L84.5254 42.4101L92.0049 35.1799L94.0948 40.2518L100.859 33.8024C101.3 31.6085 101.602 29.3252 101.805 26.9675Z" fill="#444C37"/>
<path fill-rule="evenodd" clip-rule="evenodd" d="M102.184 18.1813L91.3269 9.71236V13.921L78.1458 3.66919L64.9647 13.921V9.71236L54.1074 18.1813C54.1384 21.1219 54.237 23.9856 54.4688 26.7483L64.9647 18.5613V22.5541L78.1458 12.3023L91.3269 22.5541V18.5613L101.824 26.7493C102.055 23.9863 102.153 21.1222 102.184 18.1813Z" fill="#AF8742"/>
<path fill-rule="evenodd" clip-rule="evenodd" d="M85.8751 21.4155L78.2298 15.5396L70.4164 21.5827L78.0617 27.4587L85.8751 21.4155ZM81.1683 21.4664L78.1786 19.1687L75.1233 21.5318L78.1129 23.8296L81.1683 21.4664Z" fill="white"/>
<path fill-rule="evenodd" clip-rule="evenodd" d="M69.9124 22.8777L78.1458 29.2121L86.3791 22.8777V25.3896L78.1458 31.9424L69.9124 25.3896V22.8777Z" fill="white"/>
<path d="M68.596 26.115L70.0149 24.8201L70.6697 25.6834L69.1417 26.8704L68.8143 30.6474H68.596V26.115Z" fill="white"/>
<path d="M70.4514 27.41L71.8702 26.115L72.5251 26.9783L70.9971 28.1653L70.6697 32.374H70.4514V27.41Z" fill="white"/>
<path d="M72.1977 28.7049L73.6165 27.4099L74.2713 28.2732L72.7434 29.4603L72.4159 34.1006H72.1977V28.7049Z" fill="white"/>
<path d="M73.9439 30.2159L75.3627 28.9209L76.0176 29.7842L74.4896 30.9713L74.1622 36.0432H73.9439V30.2159Z" fill="white"/>
<path d="M75.6901 31.7266L77.109 30.4316L77.7638 31.295L76.2358 32.482L75.9084 37.7698H75.6901V31.7266Z" fill="white"/>
<path d="M87.6955 26.115L86.2767 24.8201L85.6219 25.6834L87.1498 26.8704L87.4772 30.6474H87.6955V26.115Z" fill="white"/>
<path d="M85.8401 27.41L84.4213 26.115L83.7665 26.9783L85.2944 28.1653L85.6219 32.374H85.8401V27.41Z" fill="white"/>
<path d="M84.0939 28.7049L82.6751 27.4099L82.0202 28.2732L83.5482 29.4603L83.8756 34.1006H84.0939V28.7049Z" fill="white"/>
<path d="M82.3477 30.2159L80.9288 28.9209L80.274 29.7842L81.802 30.9713L82.1294 36.0432H82.3477V30.2159Z" fill="white"/>
<path d="M80.6014 31.7266L79.1826 30.4316L78.5278 31.295L80.0557 32.482L80.3832 37.7698H80.6014V31.7266Z" fill="white"/>
<rect x="120.19" width="4.6875" height="30" fill="#3F3F3F"/>
<rect x="120.19" y="30" width="4.6875" height="30" fill="#E92C2A"/>
<path d="M150.653 15.5H141.728V3.6H144.023V13.63H149.293V3.6H151.588V13.63H152.778V18.05H150.653V15.5ZM160.871 12.355H155.822C156.06 13.2617 156.689 13.715 157.709 13.715C158.355 13.715 158.848 13.528 159.188 13.154L160.497 14.497C159.738 15.279 158.752 15.67 157.539 15.67C156.315 15.67 155.329 15.3017 154.581 14.565C153.833 13.8283 153.459 12.848 153.459 11.624C153.459 10.4567 153.805 9.51033 154.496 8.785C155.199 8.04833 156.123 7.68 157.267 7.68C158.435 7.68 159.324 8.088 159.936 8.904C160.56 9.72 160.871 10.8703 160.871 12.355ZM157.318 9.584C156.933 9.584 156.61 9.69733 156.349 9.924C156.089 10.1507 155.913 10.4623 155.822 10.859H158.661C158.491 10.009 158.044 9.584 157.318 9.584ZM164.441 7.85V10.825H167.161V7.85H169.371V15.5H167.161V12.525H164.441V15.5H162.231V7.85H164.441ZM175.058 9.55V15.5H172.848V9.55H170.723V7.85H177.183V9.55H175.058ZM178.567 7.85H180.777V8.36C181.355 7.90667 182.024 7.68 182.783 7.68C183.837 7.68 184.687 8.04833 185.333 8.785C185.979 9.52167 186.302 10.485 186.302 11.675C186.302 12.865 185.939 13.8283 185.214 14.565C184.5 15.3017 183.559 15.67 182.392 15.67C181.803 15.67 181.264 15.5567 180.777 15.33V19.75H178.567V7.85ZM183.48 13.154C183.831 12.7687 184.007 12.2757 184.007 11.675C184.007 11.0743 183.831 10.587 183.48 10.213C183.14 9.82767 182.698 9.635 182.154 9.635C181.565 9.635 181.106 9.81633 180.777 10.179V13.239C181.094 13.5563 181.553 13.715 182.154 13.715C182.698 13.715 183.14 13.528 183.48 13.154ZM143.938 34.5H141.728V26.85H143.938V29.876L146.216 26.85H148.817L146.046 30.403L149.123 34.5H146.539L143.938 30.964V34.5ZM150.145 34.5V26.85H152.355V34.5H150.145ZM150.349 25.456C150.1 25.2067 149.975 24.9063 149.975 24.555C149.975 24.2037 150.1 23.9033 150.349 23.654C150.598 23.4047 150.899 23.28 151.25 23.28C151.601 23.28 151.902 23.4047 152.151 23.654C152.4 23.9033 152.525 24.2037 152.525 24.555C152.525 24.9063 152.4 25.2067 152.151 25.456C151.902 25.7053 151.601 25.83 151.25 25.83C150.899 25.83 150.598 25.7053 150.349 25.456ZM160.302 21.665L161.492 22.855C160.959 23.399 160.404 23.841 159.826 24.181C159.259 24.521 158.789 24.7533 158.415 24.878C158.041 24.9913 157.69 25.1387 157.361 25.32C157.032 25.49 156.772 25.7563 156.579 26.119C156.398 26.4817 156.273 27.003 156.205 27.683H156.307C156.953 27.0143 157.667 26.68 158.449 26.68C159.424 26.68 160.279 27.0653 161.016 27.836C161.764 28.5953 162.138 29.57 162.138 30.76C162.138 31.9273 161.758 32.8737 160.999 33.599C160.24 34.313 159.186 34.67 157.837 34.67C157.236 34.67 156.715 34.5907 156.273 34.432C155.831 34.2733 155.429 34.0013 155.066 33.616C154.715 33.2307 154.443 32.681 154.25 31.967C154.069 31.2417 153.978 30.3633 153.978 29.332C153.978 28.38 154.057 27.5527 154.216 26.85C154.375 26.1473 154.59 25.5863 154.862 25.167C155.145 24.7363 155.457 24.3793 155.797 24.096C156.148 23.8013 156.528 23.5633 156.936 23.382C157.355 23.2007 157.752 23.042 158.126 22.906C158.511 22.7587 158.902 22.583 159.299 22.379C159.707 22.175 160.041 21.937 160.302 21.665ZM156.766 29.213C156.437 29.587 156.273 30.0743 156.273 30.675C156.273 31.2757 156.437 31.7687 156.766 32.154C157.095 32.528 157.525 32.715 158.058 32.715C158.591 32.715 159.021 32.528 159.35 32.154C159.679 31.7687 159.843 31.2757 159.843 30.675C159.843 30.0743 159.679 29.587 159.35 29.213C159.021 28.8277 158.591 28.635 158.058 28.635C157.525 28.635 157.095 28.8277 156.766 29.213ZM170.733 31.355H165.684C165.922 32.2617 166.551 32.715 167.571 32.715C168.217 32.715 168.71 32.528 169.05 32.154L170.359 33.497C169.599 34.279 168.613 34.67 167.401 34.67C166.177 34.67 165.191 34.3017 164.443 33.565C163.695 32.8283 163.321 31.848 163.321 30.624C163.321 29.4567 163.666 28.5103 164.358 27.785C165.06 27.0483 165.984 26.68 167.129 26.68C168.296 26.68 169.186 27.088 169.798 27.904C170.421 28.72 170.733 29.8703 170.733 31.355ZM167.18 28.584C166.794 28.584 166.471 28.6973 166.211 28.924C165.95 29.1507 165.774 29.4623 165.684 29.859H168.523C168.353 29.009 167.905 28.584 167.18 28.584ZM172.092 26.85H174.302V27.36C174.88 26.9067 175.549 26.68 176.308 26.68C177.362 26.68 178.212 27.0483 178.858 27.785C179.504 28.5217 179.827 29.485 179.827 30.675C179.827 31.865 179.465 32.8283 178.739 33.565C178.025 34.3017 177.085 34.67 175.917 34.67C175.328 34.67 174.79 34.5567 174.302 34.33V38.75H172.092V26.85ZM177.005 32.154C177.357 31.7687 177.532 31.2757 177.532 30.675C177.532 30.0743 177.357 29.587 177.005 29.213C176.665 28.8277 176.223 28.635 175.679 28.635C175.09 28.635 174.631 28.8163 174.302 29.179V32.239C174.62 32.5563 175.079 32.715 175.679 32.715C176.223 32.715 176.665 32.528 177.005 32.154ZM183.483 26.85V29.825H186.203V26.85H188.413V34.5H186.203V31.525H183.483V34.5H181.273V26.85H183.483ZM197.262 31.355H192.213C192.451 32.2617 193.08 32.715 194.1 32.715C194.746 32.715 195.239 32.528 195.579 32.154L196.888 33.497C196.129 34.279 195.143 34.67 193.93 34.67C192.706 34.67 191.72 34.3017 190.972 33.565C190.224 32.8283 189.85 31.848 189.85 30.624C189.85 29.4567 190.196 28.5103 190.887 27.785C191.59 27.0483 192.513 26.68 193.658 26.68C194.825 26.68 195.715 27.088 196.327 27.904C196.95 28.72 197.262 29.8703 197.262 31.355ZM193.709 28.584C193.324 28.584 193.001 28.6973 192.74 28.924C192.479 29.1507 192.304 29.4623 192.213 29.859H195.052C194.882 29.009 194.434 28.584 193.709 28.584ZM202.102 28.55V34.5H199.892V28.55H197.767V26.85H204.227V28.55H202.102ZM207.821 26.85V30.93L211.051 26.85H212.751V34.5H210.541V30.42L207.311 34.5H205.611V26.85H207.821ZM220.886 34.5H218.676V31.627C218.166 31.7857 217.644 31.865 217.112 31.865C216.25 31.865 215.587 31.6157 215.123 31.117C214.669 30.6183 214.443 29.944 214.443 29.094V26.85H216.653V29.009C216.653 29.723 216.998 30.08 217.69 30.08C218.109 30.08 218.438 29.995 218.676 29.825V26.85H220.886V34.5ZM224.788 26.85V29.825H227.508V26.85H229.718V34.5H227.508V31.525H224.788V34.5H222.578V26.85H224.788ZM232.277 33.565C231.529 32.8283 231.155 31.865 231.155 30.675C231.155 29.485 231.529 28.5217 232.277 27.785C233.036 27.0483 234.022 26.68 235.235 26.68C236.447 26.68 237.428 27.0483 238.176 27.785C238.935 28.5217 239.315 29.485 239.315 30.675C239.315 31.865 238.935 32.8283 238.176 33.565C237.428 34.3017 236.447 34.67 235.235 34.67C234.022 34.67 233.036 34.3017 232.277 33.565ZM233.943 29.213C233.614 29.587 233.45 30.0743 233.45 30.675C233.45 31.2757 233.614 31.7687 233.943 32.154C234.271 32.528 234.702 32.715 235.235 32.715C235.767 32.715 236.198 32.528 236.527 32.154C236.855 31.7687 237.02 31.2757 237.02 30.675C237.02 30.0743 236.855 29.587 236.527 29.213C236.198 28.8277 235.767 28.635 235.235 28.635C234.702 28.635 234.271 28.8277 233.943 29.213ZM240.756 34.5V26.85H242.966V34.5H240.756ZM239.532 25.745C239.294 25.507 239.175 25.2237 239.175 24.895C239.175 24.5663 239.294 24.2887 239.532 24.062C239.759 23.824 240.037 23.705 240.365 23.705C240.694 23.705 240.972 23.824 241.198 24.062C241.436 24.2887 241.555 24.5663 241.555 24.895C241.555 25.2237 241.436 25.507 241.198 25.745C240.972 25.9717 240.694 26.085 240.365 26.085C240.037 26.085 239.759 25.9717 239.532 25.745ZM242.15 24.895C242.15 24.555 242.264 24.2717 242.49 24.045C242.728 23.807 243.012 23.688 243.34 23.688C243.68 23.688 243.964 23.807 244.19 24.045C244.428 24.2717 244.547 24.555 244.547 24.895C244.547 25.2237 244.428 25.507 244.19 25.745C243.964 25.9717 243.68 26.085 243.34 26.085C243.012 26.085 242.728 25.9717 242.49 25.745C242.264 25.507 242.15 25.2237 242.15 24.895ZM147.967 40.665L149.157 41.855C148.624 42.399 148.069 42.841 147.491 43.181C146.924 43.521 146.454 43.7533 146.08 43.878C145.706 43.9913 145.355 44.1387 145.026 44.32C144.697 44.49 144.437 44.7563 144.244 45.119C144.063 45.4817 143.938 46.003 143.87 46.683H143.972C144.618 46.0143 145.332 45.68 146.114 45.68C147.089 45.68 147.944 46.0653 148.681 46.836C149.429 47.5953 149.803 48.57 149.803 49.76C149.803 50.9273 149.423 51.8737 148.664 52.599C147.905 53.313 146.851 53.67 145.502 53.67C144.901 53.67 144.38 53.5907 143.938 53.432C143.496 53.2733 143.094 53.0013 142.731 52.616C142.38 52.2307 142.108 51.681 141.915 50.967C141.734 50.2417 141.643 49.3633 141.643 48.332C141.643 47.38 141.722 46.5527 141.881 45.85C142.04 45.1473 142.255 44.5863 142.527 44.167C142.81 43.7363 143.122 43.3793 143.462 43.096C143.813 42.8013 144.193 42.5633 144.601 42.382C145.02 42.2007 145.417 42.042 145.791 41.906C146.176 41.7587 146.567 41.583 146.964 41.379C147.372 41.175 147.706 40.937 147.967 40.665ZM144.431 48.213C144.102 48.587 143.938 49.0743 143.938 49.675C143.938 50.2757 144.102 50.7687 144.431 51.154C144.76 51.528 145.19 51.715 145.723 51.715C146.256 51.715 146.686 51.528 147.015 51.154C147.344 50.7687 147.508 50.2757 147.508 49.675C147.508 49.0743 147.344 48.587 147.015 48.213C146.686 47.8277 146.256 47.635 145.723 47.635C145.19 47.635 144.76 47.8277 144.431 48.213ZM158.398 50.355H153.349C153.587 51.2617 154.216 51.715 155.236 51.715C155.882 51.715 156.375 51.528 156.715 51.154L158.024 52.497C157.264 53.279 156.278 53.67 155.066 53.67C153.842 53.67 152.856 53.3017 152.108 52.565C151.36 51.8283 150.986 50.848 150.986 49.624C150.986 48.4567 151.331 47.5103 152.023 46.785C152.725 46.0483 153.649 45.68 154.794 45.68C155.961 45.68 156.851 46.088 157.463 46.904C158.086 47.72 158.398 48.8703 158.398 50.355ZM154.845 47.584C154.459 47.584 154.136 47.6973 153.876 47.924C153.615 48.1507 153.439 48.4623 153.349 48.859H156.188C156.018 48.009 155.57 47.584 154.845 47.584ZM161.774 45.68C162.635 45.68 163.304 45.8783 163.78 46.275C164.267 46.6717 164.511 47.1873 164.511 47.822C164.511 48.5813 164.233 49.1537 163.678 49.539C164.516 49.8903 164.936 50.542 164.936 51.494C164.936 52.174 164.675 52.7067 164.154 53.092C163.632 53.4773 162.862 53.67 161.842 53.67C161.15 53.67 160.584 53.5737 160.142 53.381C159.711 53.1883 159.297 52.8937 158.901 52.497L160.108 51.29C160.47 51.6867 160.975 51.885 161.621 51.885C162.357 51.885 162.726 51.6073 162.726 51.052C162.726 50.8253 162.658 50.6553 162.522 50.542C162.397 50.4173 162.233 50.355 162.029 50.355H160.839V48.91H161.689C161.859 48.91 162.006 48.8363 162.131 48.689C162.267 48.5417 162.335 48.383 162.335 48.213C162.335 48.1223 162.318 48.026 162.284 47.924C162.261 47.822 162.187 47.72 162.063 47.618C161.938 47.516 161.774 47.465 161.57 47.465C161.343 47.465 161.094 47.5217 160.822 47.635C160.561 47.7483 160.351 47.8957 160.193 48.077L158.986 46.87C159.745 46.0767 160.674 45.68 161.774 45.68ZM171.125 53.5V47.55H168.575V53.5H166.365V45.85H173.335V53.5H171.125ZM182.188 50.355H177.139C177.377 51.2617 178.006 51.715 179.026 51.715C179.672 51.715 180.165 51.528 180.505 51.154L181.814 52.497C181.054 53.279 180.068 53.67 178.856 53.67C177.632 53.67 176.646 53.3017 175.898 52.565C175.15 51.8283 174.776 50.848 174.776 49.624C174.776 48.4567 175.121 47.5103 175.813 46.785C176.515 46.0483 177.439 45.68 178.584 45.68C179.751 45.68 180.641 46.088 181.253 46.904C181.876 47.72 182.188 48.8703 182.188 50.355ZM178.635 47.584C178.249 47.584 177.926 47.6973 177.666 47.924C177.405 48.1507 177.229 48.4623 177.139 48.859H179.978C179.808 48.009 179.36 47.584 178.635 47.584ZM185.757 53.5H183.547V45.85H185.757V48.876L188.035 45.85H190.636L187.865 49.403L190.942 53.5H188.358L185.757 49.964V53.5ZM194.174 45.85V49.93L197.404 45.85H199.104V53.5H196.894V49.42L193.664 53.5H191.964V45.85H194.174ZM204.714 53.5V41.6H207.009V53.5H204.714ZM213.73 43.47V53.5H211.435V43.47H208.375V41.6H216.79V43.47H213.73ZM220.679 44.609C219.965 45.3683 219.608 46.3487 219.608 47.55C219.608 48.7513 219.965 49.7317 220.679 50.491C221.393 51.2503 222.322 51.63 223.467 51.63C224.646 51.63 225.598 51.2673 226.323 50.542L227.768 51.97C226.635 53.1033 225.161 53.67 223.348 53.67C221.535 53.67 220.061 53.1033 218.928 51.97C217.795 50.8367 217.228 49.3633 217.228 47.55C217.228 45.7367 217.795 44.2633 218.928 43.13C220.061 41.9967 221.535 41.43 223.348 41.43C225.161 41.43 226.635 41.9967 227.768 43.13L226.323 44.575C225.609 43.8383 224.657 43.47 223.467 43.47C222.322 43.47 221.393 43.8497 220.679 44.609Z" fill="white"/>
<defs>
<clipPath id="clip0_32_148">
<rect width="36.1905" height="60" fill="white"/>
</clipPath>
</defs>
</svg>
