<svg width="193" height="60" viewBox="0 0 193 60" fill="none" xmlns="http://www.w3.org/2000/svg">
<path fill-rule="evenodd" clip-rule="evenodd" d="M51.8725 0H26.0448L0.127944 3.29326e-06C0.127944 2.58698 0.0951202 5.15261 0.0627234 7.68486C-0.238677 31.2434 -0.503112 51.9125 26.0448 60C52.5014 51.9125 52.2379 31.2434 51.9375 7.68486C51.9052 5.15261 51.8725 2.58698 51.8725 0Z" fill="#FFD423"/>
<path fill-rule="evenodd" clip-rule="evenodd" d="M49.8874 1.72662H25.9967L2.02365 1.72663C2.02366 4.16471 1.99329 6.58268 1.96333 8.96919C1.68453 31.1718 1.43993 50.6514 25.9967 58.2734C50.4691 50.6513 50.2253 31.1718 49.9475 8.96919C49.9176 6.58268 49.8874 4.16471 49.8874 1.72662Z" fill="#232323"/>
<path fill-rule="evenodd" clip-rule="evenodd" d="M49.6149 26.9675L43.0042 33.4532L40.9144 28.3813L27.9352 40.6835L30.025 45.7554L25.9553 49.7482L21.8856 45.7554L23.9754 40.6835L10.9963 28.3813L8.90639 33.4532L2.29715 26.9689C2.50156 29.328 2.80475 31.6127 3.24779 33.8078L10.0063 40.2518L12.0962 35.1799L19.5757 42.4101L17.3759 47.3741L25.9553 55.4676L34.5348 47.3741L32.3349 42.4101L39.8144 35.1799L41.9043 40.2518L48.6685 33.8024C49.1095 31.6085 49.4114 29.3252 49.6149 26.9675Z" fill="#E92C2A"/>
<path fill-rule="evenodd" clip-rule="evenodd" d="M49.9937 18.1812L39.1364 9.71223V13.9209L25.9553 3.66907L12.7742 13.9209V9.71223L1.91695 18.1812C1.94797 21.1217 2.04656 23.9855 2.27833 26.7482L12.7742 18.5612V22.554L25.9553 12.3022L39.1364 22.554V18.5612L49.6335 26.7491C49.8645 23.9861 49.9628 21.1221 49.9937 18.1812Z" fill="#FFD423"/>
<path fill-rule="evenodd" clip-rule="evenodd" d="M33.6847 21.4156L26.0394 15.5396L18.2259 21.5827L25.8712 27.4587L33.6847 21.4156ZM28.9778 21.4665L25.9882 19.1687L22.9328 21.5318L25.9224 23.8296L28.9778 21.4665Z" fill="white"/>
<path fill-rule="evenodd" clip-rule="evenodd" d="M17.722 22.8777L25.9553 29.2121L34.1886 22.8777V25.3896L25.9553 31.9425L17.722 25.3896V22.8777Z" fill="white"/>
<path d="M16.4056 26.1151L17.8244 24.8201L18.4792 25.6834L16.9513 26.8705L16.6238 30.6475H16.4056V26.1151Z" fill="white"/>
<path d="M18.2609 27.4101L19.6798 26.1151L20.3346 26.9784L18.8066 28.1655L18.4792 32.3741H18.2609V27.4101Z" fill="white"/>
<path d="M20.0072 28.705L21.426 27.4101L22.0808 28.2734L20.5529 29.4604L20.2255 34.1007H20.0072V28.705Z" fill="white"/>
<path d="M21.7534 30.2158L23.1722 28.9208L23.8271 29.7841L22.2991 30.9712L21.9717 36.0431H21.7534V30.2158Z" fill="white"/>
<path d="M23.4997 31.7266L24.9185 30.4316L25.5733 31.295L24.0454 32.482L23.7179 37.7698H23.4997V31.7266Z" fill="white"/>
<path d="M35.505 26.1151L34.0862 24.8201L33.4314 25.6834L34.9593 26.8705L35.2868 30.6475H35.505V26.1151Z" fill="white"/>
<path d="M33.6497 27.4101L32.2309 26.1151L31.576 26.9784L33.104 28.1655L33.4314 32.3741H33.6497V27.4101Z" fill="white"/>
<path d="M31.9034 28.705L30.4846 27.4101L29.8298 28.2734L31.3577 29.4604L31.6852 34.1007H31.9034V28.705Z" fill="white"/>
<path d="M30.1572 30.2158L28.7384 28.9208L28.0835 29.7841L29.6115 30.9712L29.9389 36.0431H30.1572V30.2158Z" fill="white"/>
<path d="M28.411 31.7266L26.9921 30.4316L26.3373 31.295L27.8653 32.482L28.1927 37.7698H28.411V31.7266Z" fill="white"/>
<rect x="68" width="4.6875" height="30" fill="#2A7FFF"/>
<rect x="68" y="30" width="4.6875" height="30" fill="#FFD423"/>
<path d="M98.4625 15.5H89.5375V3.6H91.8325V13.63H97.1025V3.6H99.3975V13.63H100.588V18.05H98.4625V15.5ZM108.681 12.355H103.632C103.87 13.2617 104.499 13.715 105.519 13.715C106.165 13.715 106.658 13.528 106.998 13.154L108.307 14.497C107.547 15.279 106.561 15.67 105.349 15.67C104.125 15.67 103.139 15.3017 102.391 14.565C101.643 13.8283 101.269 12.848 101.269 11.624C101.269 10.4567 101.614 9.51033 102.306 8.785C103.008 8.04833 103.932 7.68 105.077 7.68C106.244 7.68 107.134 8.088 107.746 8.904C108.369 9.72 108.681 10.8703 108.681 12.355ZM105.128 9.584C104.742 9.584 104.419 9.69733 104.159 9.924C103.898 10.1507 103.722 10.4623 103.632 10.859H106.471C106.301 10.009 105.853 9.584 105.128 9.584ZM112.25 7.85V10.825H114.97V7.85H117.18V15.5H114.97V12.525H112.25V15.5H110.04V7.85H112.25ZM122.867 9.55V15.5H120.657V9.55H118.532V7.85H124.992V9.55H122.867ZM126.376 7.85H128.586V8.36C129.164 7.90667 129.833 7.68 130.592 7.68C131.646 7.68 132.496 8.04833 133.142 8.785C133.788 9.52167 134.111 10.485 134.111 11.675C134.111 12.865 133.749 13.8283 133.023 14.565C132.309 15.3017 131.369 15.67 130.201 15.67C129.612 15.67 129.074 15.5567 128.586 15.33V19.75H126.376V7.85ZM131.289 13.154C131.641 12.7687 131.816 12.2757 131.816 11.675C131.816 11.0743 131.641 10.587 131.289 10.213C130.949 9.82767 130.507 9.635 129.963 9.635C129.374 9.635 128.915 9.81633 128.586 10.179V13.239C128.904 13.5563 129.363 13.715 129.963 13.715C130.507 13.715 130.949 13.528 131.289 13.154ZM91.7475 34.5H89.5375V26.85H91.7475V29.876L94.0255 26.85H96.6265L93.8555 30.403L96.9325 34.5H94.3485L91.7475 30.964V34.5ZM97.9545 34.5V26.85H100.164V34.5H97.9545ZM98.1585 25.456C97.9092 25.2067 97.7845 24.9063 97.7845 24.555C97.7845 24.2037 97.9092 23.9033 98.1585 23.654C98.4078 23.4047 98.7082 23.28 99.0595 23.28C99.4108 23.28 99.7112 23.4047 99.9605 23.654C100.21 23.9033 100.334 24.2037 100.334 24.555C100.334 24.9063 100.21 25.2067 99.9605 25.456C99.7112 25.7053 99.4108 25.83 99.0595 25.83C98.7082 25.83 98.4078 25.7053 98.1585 25.456ZM108.111 21.665L109.301 22.855C108.769 23.399 108.213 23.841 107.635 24.181C107.069 24.521 106.598 24.7533 106.224 24.878C105.85 24.9913 105.499 25.1387 105.17 25.32C104.842 25.49 104.581 25.7563 104.388 26.119C104.207 26.4817 104.082 27.003 104.014 27.683H104.116C104.762 27.0143 105.476 26.68 106.258 26.68C107.233 26.68 108.089 27.0653 108.825 27.836C109.573 28.5953 109.947 29.57 109.947 30.76C109.947 31.9273 109.568 32.8737 108.808 33.599C108.049 34.313 106.995 34.67 105.646 34.67C105.046 34.67 104.524 34.5907 104.082 34.432C103.64 34.2733 103.238 34.0013 102.875 33.616C102.524 33.2307 102.252 32.681 102.059 31.967C101.878 31.2417 101.787 30.3633 101.787 29.332C101.787 28.38 101.867 27.5527 102.025 26.85C102.184 26.1473 102.399 25.5863 102.671 25.167C102.955 24.7363 103.266 24.3793 103.606 24.096C103.958 23.8013 104.337 23.5633 104.745 23.382C105.165 23.2007 105.561 23.042 105.935 22.906C106.321 22.7587 106.712 22.583 107.108 22.379C107.516 22.175 107.851 21.937 108.111 21.665ZM104.575 29.213C104.247 29.587 104.082 30.0743 104.082 30.675C104.082 31.2757 104.247 31.7687 104.575 32.154C104.904 32.528 105.335 32.715 105.867 32.715C106.4 32.715 106.831 32.528 107.159 32.154C107.488 31.7687 107.652 31.2757 107.652 30.675C107.652 30.0743 107.488 29.587 107.159 29.213C106.831 28.8277 106.4 28.635 105.867 28.635C105.335 28.635 104.904 28.8277 104.575 29.213ZM118.542 31.355H113.493C113.731 32.2617 114.36 32.715 115.38 32.715C116.026 32.715 116.519 32.528 116.859 32.154L118.168 33.497C117.409 34.279 116.423 34.67 115.21 34.67C113.986 34.67 113 34.3017 112.252 33.565C111.504 32.8283 111.13 31.848 111.13 30.624C111.13 29.4567 111.476 28.5103 112.167 27.785C112.87 27.0483 113.793 26.68 114.938 26.68C116.105 26.68 116.995 27.088 117.607 27.904C118.23 28.72 118.542 29.8703 118.542 31.355ZM114.989 28.584C114.604 28.584 114.281 28.6973 114.02 28.924C113.759 29.1507 113.584 29.4623 113.493 29.859H116.332C116.162 29.009 115.714 28.584 114.989 28.584ZM119.902 26.85H122.112V27.36C122.69 26.9067 123.358 26.68 124.118 26.68C125.172 26.68 126.022 27.0483 126.668 27.785C127.314 28.5217 127.637 29.485 127.637 30.675C127.637 31.865 127.274 32.8283 126.549 33.565C125.835 34.3017 124.894 34.67 123.727 34.67C123.137 34.67 122.599 34.5567 122.112 34.33V38.75H119.902V26.85ZM124.815 32.154C125.166 31.7687 125.342 31.2757 125.342 30.675C125.342 30.0743 125.166 29.587 124.815 29.213C124.475 28.8277 124.033 28.635 123.489 28.635C122.899 28.635 122.44 28.8163 122.112 29.179V32.239C122.429 32.5563 122.888 32.715 123.489 32.715C124.033 32.715 124.475 32.528 124.815 32.154ZM131.292 26.85V29.825H134.012V26.85H136.222V34.5H134.012V31.525H131.292V34.5H129.082V26.85H131.292ZM145.071 31.355H140.022C140.26 32.2617 140.889 32.715 141.909 32.715C142.555 32.715 143.048 32.528 143.388 32.154L144.697 33.497C143.938 34.279 142.952 34.67 141.739 34.67C140.515 34.67 139.529 34.3017 138.781 33.565C138.033 32.8283 137.659 31.848 137.659 30.624C137.659 29.4567 138.005 28.5103 138.696 27.785C139.399 27.0483 140.323 26.68 141.467 26.68C142.635 26.68 143.524 27.088 144.136 27.904C144.76 28.72 145.071 29.8703 145.071 31.355ZM141.518 28.584C141.133 28.584 140.81 28.6973 140.549 28.924C140.289 29.1507 140.113 29.4623 140.022 29.859H142.861C142.691 29.009 142.244 28.584 141.518 28.584ZM149.911 28.55V34.5H147.701V28.55H145.576V26.85H152.036V28.55H149.911ZM155.63 26.85V30.93L158.86 26.85H160.56V34.5H158.35V30.42L155.12 34.5H153.42V26.85H155.63ZM168.695 34.5H166.485V31.627C165.975 31.7857 165.454 31.865 164.921 31.865C164.06 31.865 163.397 31.6157 162.932 31.117C162.479 30.6183 162.252 29.944 162.252 29.094V26.85H164.462V29.009C164.462 29.723 164.808 30.08 165.499 30.08C165.919 30.08 166.247 29.995 166.485 29.825V26.85H168.695V34.5ZM172.597 26.85V29.825H175.317V26.85H177.527V34.5H175.317V31.525H172.597V34.5H170.387V26.85H172.597ZM180.086 33.565C179.338 32.8283 178.964 31.865 178.964 30.675C178.964 29.485 179.338 28.5217 180.086 27.785C180.845 27.0483 181.831 26.68 183.044 26.68C184.257 26.68 185.237 27.0483 185.985 27.785C186.744 28.5217 187.124 29.485 187.124 30.675C187.124 31.865 186.744 32.8283 185.985 33.565C185.237 34.3017 184.257 34.67 183.044 34.67C181.831 34.67 180.845 34.3017 180.086 33.565ZM181.752 29.213C181.423 29.587 181.259 30.0743 181.259 30.675C181.259 31.2757 181.423 31.7687 181.752 32.154C182.081 32.528 182.511 32.715 183.044 32.715C183.577 32.715 184.007 32.528 184.336 32.154C184.665 31.7687 184.829 31.2757 184.829 30.675C184.829 30.0743 184.665 29.587 184.336 29.213C184.007 28.8277 183.577 28.635 183.044 28.635C182.511 28.635 182.081 28.8277 181.752 29.213ZM188.566 34.5V26.85H190.776V34.5H188.566ZM187.342 25.745C187.104 25.507 186.985 25.2237 186.985 24.895C186.985 24.5663 187.104 24.2887 187.342 24.062C187.568 23.824 187.846 23.705 188.175 23.705C188.503 23.705 188.781 23.824 189.008 24.062C189.246 24.2887 189.365 24.5663 189.365 24.895C189.365 25.2237 189.246 25.507 189.008 25.745C188.781 25.9717 188.503 26.085 188.175 26.085C187.846 26.085 187.568 25.9717 187.342 25.745ZM189.96 24.895C189.96 24.555 190.073 24.2717 190.3 24.045C190.538 23.807 190.821 23.688 191.15 23.688C191.49 23.688 191.773 23.807 192 24.045C192.238 24.2717 192.357 24.555 192.357 24.895C192.357 25.2237 192.238 25.507 192 25.745C191.773 25.9717 191.49 26.085 191.15 26.085C190.821 26.085 190.538 25.9717 190.3 25.745C190.073 25.507 189.96 25.2237 189.96 24.895ZM95.7765 40.665L96.9665 41.855C96.4338 42.399 95.8785 42.841 95.3005 43.181C94.7338 43.521 94.2635 43.7533 93.8895 43.878C93.5155 43.9913 93.1642 44.1387 92.8355 44.32C92.5068 44.49 92.2462 44.7563 92.0535 45.119C91.8722 45.4817 91.7475 46.003 91.6795 46.683H91.7815C92.4275 46.0143 93.1415 45.68 93.9235 45.68C94.8982 45.68 95.7538 46.0653 96.4905 46.836C97.2385 47.5953 97.6125 48.57 97.6125 49.76C97.6125 50.9273 97.2328 51.8737 96.4735 52.599C95.7142 53.313 94.6602 53.67 93.3115 53.67C92.7108 53.67 92.1895 53.5907 91.7475 53.432C91.3055 53.2733 90.9032 53.0013 90.5405 52.616C90.1892 52.2307 89.9172 51.681 89.7245 50.967C89.5432 50.2417 89.4525 49.3633 89.4525 48.332C89.4525 47.38 89.5318 46.5527 89.6905 45.85C89.8492 45.1473 90.0645 44.5863 90.3365 44.167C90.6198 43.7363 90.9315 43.3793 91.2715 43.096C91.6228 42.8013 92.0025 42.5633 92.4105 42.382C92.8298 42.2007 93.2265 42.042 93.6005 41.906C93.9858 41.7587 94.3768 41.583 94.7735 41.379C95.1815 41.175 95.5158 40.937 95.7765 40.665ZM92.2405 48.213C91.9118 48.587 91.7475 49.0743 91.7475 49.675C91.7475 50.2757 91.9118 50.7687 92.2405 51.154C92.5692 51.528 92.9998 51.715 93.5325 51.715C94.0652 51.715 94.4958 51.528 94.8245 51.154C95.1532 50.7687 95.3175 50.2757 95.3175 49.675C95.3175 49.0743 95.1532 48.587 94.8245 48.213C94.4958 47.8277 94.0652 47.635 93.5325 47.635C92.9998 47.635 92.5692 47.8277 92.2405 48.213ZM106.207 50.355H101.158C101.396 51.2617 102.025 51.715 103.045 51.715C103.691 51.715 104.184 51.528 104.524 51.154L105.833 52.497C105.074 53.279 104.088 53.67 102.875 53.67C101.651 53.67 100.665 53.3017 99.9172 52.565C99.1692 51.8283 98.7952 50.848 98.7952 49.624C98.7952 48.4567 99.1409 47.5103 99.8322 46.785C100.535 46.0483 101.459 45.68 102.603 45.68C103.771 45.68 104.66 46.088 105.272 46.904C105.896 47.72 106.207 48.8703 106.207 50.355ZM102.654 47.584C102.269 47.584 101.946 47.6973 101.685 47.924C101.425 48.1507 101.249 48.4623 101.158 48.859H103.997C103.827 48.009 103.38 47.584 102.654 47.584ZM109.583 45.68C110.444 45.68 111.113 45.8783 111.589 46.275C112.076 46.6717 112.32 47.1873 112.32 47.822C112.32 48.5813 112.042 49.1537 111.487 49.539C112.326 49.8903 112.745 50.542 112.745 51.494C112.745 52.174 112.484 52.7067 111.963 53.092C111.442 53.4773 110.671 53.67 109.651 53.67C108.96 53.67 108.393 53.5737 107.951 53.381C107.52 53.1883 107.107 52.8937 106.71 52.497L107.917 51.29C108.28 51.6867 108.784 51.885 109.43 51.885C110.167 51.885 110.535 51.6073 110.535 51.052C110.535 50.8253 110.467 50.6553 110.331 50.542C110.206 50.4173 110.042 50.355 109.838 50.355H108.648V48.91H109.498C109.668 48.91 109.815 48.8363 109.94 48.689C110.076 48.5417 110.144 48.383 110.144 48.213C110.144 48.1223 110.127 48.026 110.093 47.924C110.07 47.822 109.997 47.72 109.872 47.618C109.747 47.516 109.583 47.465 109.379 47.465C109.152 47.465 108.903 47.5217 108.631 47.635C108.37 47.7483 108.161 47.8957 108.002 48.077L106.795 46.87C107.554 46.0767 108.484 45.68 109.583 45.68ZM118.934 53.5V47.55H116.384V53.5H114.174V45.85H121.144V53.5H118.934ZM129.997 50.355H124.948C125.186 51.2617 125.815 51.715 126.835 51.715C127.481 51.715 127.974 51.528 128.314 51.154L129.623 52.497C128.864 53.279 127.878 53.67 126.665 53.67C125.441 53.67 124.455 53.3017 123.707 52.565C122.959 51.8283 122.585 50.848 122.585 49.624C122.585 48.4567 122.931 47.5103 123.622 46.785C124.325 46.0483 125.249 45.68 126.393 45.68C127.561 45.68 128.45 46.088 129.062 46.904C129.686 47.72 129.997 48.8703 129.997 50.355ZM126.444 47.584C126.059 47.584 125.736 47.6973 125.475 47.924C125.215 48.1507 125.039 48.4623 124.948 48.859H127.787C127.617 48.009 127.17 47.584 126.444 47.584ZM133.567 53.5H131.357V45.85H133.567V48.876L135.845 45.85H138.446L135.675 49.403L138.752 53.5H136.168L133.567 49.964V53.5ZM141.984 45.85V49.93L145.214 45.85H146.914V53.5H144.704V49.42L141.474 53.5H139.774V45.85H141.984ZM152.524 53.5V41.6H154.819V53.5H152.524ZM161.54 43.47V53.5H159.245V43.47H156.185V41.6H164.6V43.47H161.54ZM168.488 44.609C167.774 45.3683 167.417 46.3487 167.417 47.55C167.417 48.7513 167.774 49.7317 168.488 50.491C169.202 51.2503 170.132 51.63 171.276 51.63C172.455 51.63 173.407 51.2673 174.132 50.542L175.577 51.97C174.444 53.1033 172.971 53.67 171.157 53.67C169.344 53.67 167.871 53.1033 166.737 51.97C165.604 50.8367 165.037 49.3633 165.037 47.55C165.037 45.7367 165.604 44.2633 166.737 43.13C167.871 41.9967 169.344 41.43 171.157 41.43C172.971 41.43 174.444 41.9967 175.577 43.13L174.132 44.575C173.418 43.8383 172.466 43.47 171.276 43.47C170.132 43.47 169.202 43.8497 168.488 44.609Z" fill="white"/>
</svg>
