<svg width="64" height="64" viewBox="0 0 64 64" fill="none" xmlns="http://www.w3.org/2000/svg">
<g clip-path="url(#clip0_29_153)">
<path d="M34.5 7.594C34.348 7.50623 34.1755 7.46002 34 7.46002C33.8245 7.46002 33.652 7.50623 33.5 7.594C33.0445 7.85888 32.5269 7.99841 32 7.99841C31.4731 7.99841 30.9555 7.85888 30.5 7.594C30.348 7.50623 30.1755 7.46002 30 7.46002C29.8245 7.46002 29.652 7.50623 29.5 7.59399C29.348 7.68176 29.2218 7.80799 29.134 7.96001C29.0462 8.11202 29 8.28446 29 8.46V19.35C28.9999 19.5109 29.0386 19.6695 29.1129 19.8122C29.1871 19.9549 29.2948 20.0777 29.4266 20.1699C29.5584 20.2622 29.7105 20.3213 29.8701 20.3422C30.0296 20.3631 30.1919 20.3452 30.343 20.29C31.4141 19.9051 32.5859 19.9051 33.657 20.29C33.7671 20.3295 33.8831 20.3498 34 20.35C34.2652 20.35 34.5196 20.2446 34.7071 20.0571C34.8946 19.8696 35 19.6152 35 19.35V8.46C35 8.28446 34.9538 8.11203 34.866 7.96001C34.7783 7.808 34.652 7.68176 34.5 7.594Z" fill="#C4CFB2"/>
<path d="M34 45H30C29.7348 45 29.4804 45.1054 29.2929 45.2929C29.1054 45.4804 29 45.7348 29 46V55.54C28.9998 55.7156 29.0459 55.8882 29.1336 56.0403C29.2213 56.1925 29.3475 56.3189 29.4996 56.4068C29.6516 56.4946 29.8241 56.5409 29.9998 56.541C30.1754 56.541 30.3479 56.4948 30.5 56.407C30.9555 56.1421 31.4731 56.0026 32 56.0026C32.5269 56.0026 33.0445 56.1421 33.5 56.407C33.6521 56.4948 33.8246 56.541 34.0002 56.541C34.1759 56.5409 34.3484 56.4946 34.5004 56.4068C34.6525 56.3189 34.7787 56.1925 34.8664 56.0403C34.9541 55.8882 35.0002 55.7156 35 55.54V46C35 45.7348 34.8946 45.4804 34.7071 45.2929C34.5196 45.1054 34.2652 45 34 45Z" fill="#C4CFB2"/>
<path d="M24 39V35C24 34.7348 23.8947 34.4804 23.7071 34.2929C23.5196 34.1054 23.2652 34 23 34H8.46002C8.2844 33.9998 8.11183 34.0459 7.95968 34.1336C7.80752 34.2213 7.68115 34.3475 7.59326 34.4996C7.50538 34.6516 7.45909 34.8241 7.45905 34.9998C7.459 35.1754 7.50521 35.3479 7.59302 35.5C7.8592 35.9551 7.99949 36.4728 7.99949 37C7.99949 37.5272 7.8592 38.0449 7.59302 38.5C7.50521 38.6521 7.459 38.8246 7.45905 39.0002C7.45909 39.1759 7.50538 39.3484 7.59326 39.5004C7.68115 39.6525 7.80752 39.7787 7.95968 39.8664C8.11183 39.9541 8.2844 40.0002 8.46002 40H23C23.2652 40 23.5196 39.8946 23.7071 39.7071C23.8947 39.5196 24 39.2652 24 39Z" fill="#C4CFB2"/>
<path d="M56 37C56.0002 36.4729 56.1403 35.9553 56.406 35.5C56.4938 35.348 56.54 35.1755 56.54 35C56.54 34.8245 56.4938 34.652 56.406 34.5C56.3182 34.348 56.192 34.2218 56.04 34.134C55.888 34.0462 55.7155 34 55.54 34H41C40.7348 34 40.4804 34.1054 40.2929 34.2929C40.1054 34.4804 40 34.7348 40 35V39C40 39.2652 40.1054 39.5196 40.2929 39.7071C40.4804 39.8946 40.7348 40 41 40H55.54C55.7155 40 55.888 39.9538 56.04 39.866C56.192 39.7782 56.3182 39.652 56.406 39.5C56.4938 39.348 56.54 39.1755 56.54 39C56.54 38.8245 56.4938 38.652 56.406 38.5C56.1403 38.0447 56.0002 37.5271 56 37Z" fill="#C4CFB2"/>
<path d="M50.515 48.013L41.475 42.583C41.3333 42.498 41.1727 42.4494 41.0076 42.4416C40.8425 42.4338 40.678 42.4671 40.5289 42.5384C40.3798 42.6097 40.2507 42.7169 40.1532 42.8503C40.0557 42.9838 39.9927 43.1393 39.97 43.303C39.9003 43.7754 39.6628 44.2068 39.3011 44.5185C38.9393 44.8301 38.4775 45.001 38 45H37.47C37.2513 44.9998 37.0386 45.0714 36.8645 45.2036C36.6903 45.3359 36.5643 45.5216 36.5058 45.7323C36.4473 45.943 36.4594 46.167 36.5403 46.3702C36.6213 46.5733 36.7666 46.7443 36.954 46.857L45 51.7V55.54C44.9998 55.7156 45.0459 55.8882 45.1336 56.0403C45.2213 56.1925 45.3475 56.3189 45.4996 56.4068C45.6516 56.4946 45.8241 56.5409 45.9997 56.541C46.1754 56.541 46.3479 56.4948 46.5 56.407C46.9555 56.1421 47.473 56.0026 48 56.0026C48.5269 56.0026 49.0445 56.1421 49.5 56.407C49.6521 56.4948 49.8246 56.541 50.0002 56.541C50.1758 56.5409 50.3484 56.4946 50.5004 56.4068C50.6525 56.3189 50.7787 56.1925 50.8664 56.0403C50.9541 55.8882 51.0002 55.7156 51 55.54V48.87C51 48.6974 50.9553 48.5278 50.8703 48.3777C50.7853 48.2275 50.6629 48.1019 50.515 48.013Z" fill="#C4CFB2"/>
<path d="M26.53 45H26C25.5221 45.0011 25.0599 44.8298 24.6982 44.5175C24.3365 44.2052 24.0996 43.7729 24.031 43.3C24.0084 43.1362 23.9454 42.9805 23.8478 42.8469C23.7502 42.7134 23.621 42.6061 23.4718 42.5348C23.3225 42.4634 23.1579 42.4302 22.9927 42.4381C22.8274 42.446 22.6668 42.4948 22.525 42.58L13.485 48.01C13.3367 48.0991 13.214 48.2252 13.129 48.376C13.044 48.5267 12.9995 48.6969 13 48.87V55.54C12.9998 55.7156 13.0459 55.8882 13.1336 56.0404C13.2213 56.1925 13.3475 56.3189 13.4996 56.4068C13.6516 56.4947 13.8241 56.5409 13.9998 56.541C14.1754 56.541 14.3479 56.4948 14.5 56.407C14.9555 56.1421 15.4731 56.0026 16 56.0026C16.5269 56.0026 17.0445 56.1421 17.5 56.407C17.6521 56.4948 17.8246 56.541 18.0002 56.541C18.1759 56.5409 18.3484 56.4947 18.5004 56.4068C18.6525 56.3189 18.7787 56.1925 18.8664 56.0404C18.9541 55.8882 19.0002 55.7156 19 55.54V51.7L27.045 46.862C27.2348 46.7504 27.3824 46.5793 27.4651 46.3753C27.5477 46.1712 27.5607 45.9456 27.502 45.7334C27.4433 45.5212 27.3162 45.3343 27.1405 45.2017C26.9647 45.0691 26.7501 44.9982 26.53 45Z" fill="#C4CFB2"/>
<path d="M40 31V32.72C40 32.897 40.0469 33.0707 40.136 33.2236C40.225 33.3765 40.3531 33.503 40.507 33.5902C40.6609 33.6775 40.8352 33.7223 41.0122 33.7202C41.1891 33.718 41.3623 33.669 41.514 33.578L52.514 26.988C52.6623 26.8992 52.785 26.7735 52.8701 26.6231C52.9553 26.4727 53.0001 26.3028 53 26.13V17.46C53.0002 17.2844 52.9541 17.1118 52.8664 16.9597C52.7787 16.8075 52.6525 16.6811 52.5005 16.5933C52.3484 16.5054 52.1759 16.4591 52.0003 16.459C51.8247 16.459 51.6521 16.5052 51.5 16.593C51.0445 16.8579 50.527 16.9974 50 16.9974C49.4731 16.9974 48.9556 16.8579 48.5 16.593C48.3479 16.5052 48.1754 16.459 47.9998 16.459C47.8242 16.4591 47.6517 16.5054 47.4996 16.5933C47.3476 16.6811 47.2213 16.8075 47.1336 16.9597C47.0459 17.1118 46.9999 17.2844 47 17.46V23.305L39.425 27.863C39.2882 27.9453 39.1731 28.0591 39.0892 28.195C39.0054 28.3309 38.9553 28.4848 38.9432 28.644C38.9311 28.8032 38.9572 28.963 39.0195 29.11C39.0817 29.257 39.1783 29.387 39.301 29.489C39.5216 29.6739 39.6986 29.9052 39.8194 30.1664C39.9402 30.4276 40.0019 30.7122 40 31Z" fill="#C4CFB2"/>
<path d="M11.486 26.988L22.486 33.578C22.6378 33.669 22.811 33.718 22.9879 33.7202C23.1648 33.7223 23.3391 33.6775 23.493 33.5902C23.647 33.503 23.775 33.3765 23.8641 33.2236C23.9531 33.0707 24 32.897 24 32.72V31C23.9982 30.7122 24.0601 30.4275 24.1811 30.1663C24.3021 29.9051 24.4793 29.6738 24.7 29.489C24.8228 29.387 24.9194 29.2571 24.9818 29.1102C25.0441 28.9632 25.0703 28.8034 25.0583 28.6443C25.0463 28.4851 24.9963 28.3311 24.9125 28.1952C24.8288 28.0593 24.7138 27.9454 24.577 27.863L17 23.305V17.46C17.0002 17.2844 16.9541 17.1118 16.8664 16.9597C16.7787 16.8075 16.6525 16.6811 16.5004 16.5933C16.3484 16.5054 16.1759 16.4591 16.0002 16.459C15.8246 16.459 15.6521 16.5052 15.5 16.593C15.0445 16.8579 14.5269 16.9974 14 16.9974C13.4731 16.9974 12.9555 16.8579 12.5 16.593C12.3479 16.5052 12.1754 16.459 11.9998 16.459C11.8241 16.4591 11.6516 16.5054 11.4996 16.5933C11.3475 16.6811 11.2213 16.8075 11.1336 16.9597C11.0459 17.1118 10.9998 17.2844 11 17.46V26.13C11 26.3028 11.0447 26.4727 11.1299 26.6231C11.2151 26.7735 11.3378 26.8992 11.486 26.988Z" fill="#C4CFB2"/>
<path d="M32 10C34.7614 10 37 7.76142 37 5C37 2.23858 34.7614 0 32 0C29.2386 0 27 2.23858 27 5C27 7.76142 29.2386 10 32 10Z" fill="#E1EBD3"/>
<path d="M32 64C34.7614 64 37 61.7614 37 59C37 56.2386 34.7614 54 32 54C29.2386 54 27 56.2386 27 59C27 61.7614 29.2386 64 32 64Z" fill="#E1EBD3"/>
<path d="M59 42C61.7614 42 64 39.7614 64 37C64 34.2386 61.7614 32 59 32C56.2386 32 54 34.2386 54 37C54 39.7614 56.2386 42 59 42Z" fill="#E1EBD3"/>
<path d="M5 42C7.76142 42 10 39.7614 10 37C10 34.2386 7.76142 32 5 32C2.23858 32 0 34.2386 0 37C0 39.7614 2.23858 42 5 42Z" fill="#E1EBD3"/>
<path d="M48 64C50.7614 64 53 61.7614 53 59C53 56.2386 50.7614 54 48 54C45.2386 54 43 56.2386 43 59C43 61.7614 45.2386 64 48 64Z" fill="#E1EBD3"/>
<path d="M50 19C52.7614 19 55 16.7614 55 14C55 11.2386 52.7614 9 50 9C47.2386 9 45 11.2386 45 14C45 16.7614 47.2386 19 50 19Z" fill="#E1EBD3"/>
<path d="M15 64C17.7614 64 20 61.7614 20 59C20 56.2386 17.7614 54 15 54C12.2386 54 10 56.2386 10 59C10 61.7614 12.2386 64 15 64Z" fill="#E1EBD3"/>
<path d="M15 19C17.7614 19 20 16.7614 20 14C20 11.2386 17.7614 9 15 9C12.2386 9 10 11.2386 10 14C10 16.7614 12.2386 19 15 19Z" fill="#E1EBD3"/>
<path d="M20.24 30.2047V35.4182C22.0219 37.1822 26.0875 38.16 32 38.16C37.9125 38.16 41.9781 37.1822 43.76 35.4182V30.2047C41.8235 31.5229 38.3078 32.56 32 32.56C25.6922 32.56 22.1765 31.5229 20.24 30.2047Z" fill="#899771"/>
<path d="M20.24 36.9247V42.08C20.24 44.6538 26.1558 46 32 46C37.8442 46 43.76 44.6538 43.76 42.08V36.9247C41.8235 38.2429 38.3078 39.28 32 39.28C25.6922 39.28 22.1765 38.2429 20.24 36.9247Z" fill="#606754"/>
<path d="M32 18C26.1558 18 20.24 19.3462 20.24 21.92V21.9782C22.0219 23.7422 26.0875 24.72 32 24.72C37.9125 24.72 41.9781 23.7422 43.76 21.9782V21.92C43.76 19.3462 37.8442 18 32 18Z" fill="#C4CDB7"/>
<path d="M20.24 23.4847V28.6983C22.0219 30.4623 26.0875 31.44 32 31.44C37.9125 31.44 41.9781 30.4623 43.76 28.6983V23.4847C41.8235 24.8029 38.3078 25.84 32 25.84C25.6922 25.84 22.1765 24.8029 20.24 23.4847Z" fill="#ACB79B"/>
</g>
<defs>
<clipPath id="clip0_29_153">
<rect width="64" height="64" fill="white"/>
</clipPath>
</defs>
</svg>
