<svg width="24" height="24" viewBox="0 0 24 24" fill="none" xmlns="http://www.w3.org/2000/svg">
<path d="M14.501 11.4998H17.0021" stroke="#444C37" stroke-width="1.5" stroke-linecap="round" stroke-linejoin="round"/>
<circle cx="12" cy="11.4998" r="2.50104" stroke="#444C37" stroke-width="1.5" stroke-linecap="round" stroke-linejoin="round"/>
<path d="M9.49895 11.4998H6.99791" stroke="#444C37" stroke-width="1.5" stroke-linecap="round" stroke-linejoin="round"/>
<path d="M12 8.99872V6.49768" stroke="#444C37" stroke-width="1.5" stroke-linecap="round" stroke-linejoin="round"/>
<path d="M11.2497 6.49771H12.7503" stroke="#444C37" stroke-width="1.5" stroke-linecap="round" stroke-linejoin="round"/>
<path d="M12 14.0009V16.5019" stroke="#444C37" stroke-width="1.5" stroke-linecap="round" stroke-linejoin="round"/>
<path d="M12.7503 16.5019H11.2497" stroke="#444C37" stroke-width="1.5" stroke-linecap="round" stroke-linejoin="round"/>
<path d="M15.0064 7.43225L16.0675 8.49335" stroke="#444C37" stroke-width="1.5" stroke-linecap="round" stroke-linejoin="round"/>
<path d="M8.99354 15.5673L7.93243 14.5062" stroke="#444C37" stroke-width="1.5" stroke-linecap="round" stroke-linejoin="round"/>
<path d="M17.0021 10.7495V12.2501" stroke="#444C37" stroke-width="1.5" stroke-linecap="round" stroke-linejoin="round"/>
<path d="M6.99792 12.2501V10.7495" stroke="#444C37" stroke-width="1.5" stroke-linecap="round" stroke-linejoin="round"/>
<path d="M7.93243 8.49335L8.99354 7.43225" stroke="#444C37" stroke-width="1.5" stroke-linecap="round" stroke-linejoin="round"/>
<path d="M16.0675 14.5062L15.0064 15.5673" stroke="#444C37" stroke-width="1.5" stroke-linecap="round" stroke-linejoin="round"/>
<path d="M13.7685 9.73127L15.537 7.96277" stroke="#444C37" stroke-width="1.5" stroke-linecap="round" stroke-linejoin="round"/>
<path d="M10.2315 13.2683L8.463 15.0368" stroke="#444C37" stroke-width="1.5" stroke-linecap="round" stroke-linejoin="round"/>
<path d="M10.2315 9.73127L8.463 7.96277" stroke="#444C37" stroke-width="1.5" stroke-linecap="round" stroke-linejoin="round"/>
<path d="M13.7685 13.2683L15.537 15.0368" stroke="#444C37" stroke-width="1.5" stroke-linecap="round" stroke-linejoin="round"/>
<path fill-rule="evenodd" clip-rule="evenodd" d="M20.448 6.59046V11.0903C20.448 15.4927 17.7174 19.4334 13.5955 20.9794L12.3718 21.4379C12.1317 21.5259 11.8682 21.5259 11.6281 21.4379L10.4021 20.9794C6.2811 19.4326 3.55154 15.4921 3.55203 11.0903V6.59046C3.55171 5.6676 4.14989 4.85111 5.02992 4.57322L11.3668 2.59399C11.7788 2.46338 12.2212 2.46338 12.6332 2.59399L18.9701 4.57322C19.8501 4.85111 20.4483 5.6676 20.448 6.59046Z" stroke="#444C37" stroke-width="1.5" stroke-linecap="round" stroke-linejoin="round"/>
</svg>
