<svg width="37" height="60" viewBox="0 0 37 60" fill="none" xmlns="http://www.w3.org/2000/svg">
<g clip-path="url(#clip0_15_76)">
<path d="M18.0953 0.149261C16.7015 1.72837 15.852 3.79404 15.852 6.06269C15.9343 11.0433 16.5459 16.0179 16.5998 20.9881C16.7104 25.6299 15.3167 29.9881 13.6208 34.2418C13.0555 35.4164 12.4454 36.5657 11.8337 37.7179L10.0391 37.3567C8.41954 37.0343 7.36672 35.4627 7.69124 33.8463C7.97389 32.4328 9.22111 31.4433 10.6119 31.4433L11.2669 31.5134L9.80584 19.3343C9.32879 13.9164 6.52627 9.15523 2.40325 6.06568C1.69439 5.53434 0.942167 5.04777 0.160034 4.61941V47.8582H10.1618C10.9095 51.903 13.1437 55.4403 16.2842 57.8582C17.0305 58.3716 17.6571 59.0493 18.1072 59.8403C18.5559 59.0493 19.1825 58.3716 19.9302 57.8582C23.0707 55.4343 25.3049 51.9045 26.0527 47.8582H36.0544V4.61941C35.2723 5.04777 34.52 5.53434 33.8112 6.06568C29.6837 9.15971 26.8871 13.9164 26.4086 19.3343L24.9475 31.5134L25.6025 31.4433C26.9933 31.4493 28.2406 32.4314 28.5232 33.8463C28.8462 35.4627 27.7934 37.0328 26.1753 37.3567L24.3807 37.7179C23.7691 36.5672 23.1574 35.4179 22.5936 34.2418C20.8963 29.9911 19.5025 25.6328 19.6132 20.9881C19.667 16.003 20.2786 11.0328 20.3609 6.06269C20.3609 3.79404 19.5115 1.73434 18.1177 0.149261H18.0953ZM3.14051 10.8508C5.07566 13.1179 6.37523 15.9403 6.75956 19.0493L7.95594 29.094C6.42308 29.8552 5.26409 31.2522 4.82442 32.9433H3.13005V10.8537L3.14051 10.8508ZM33.05 10.8508V32.9403H31.3556C30.9189 31.2508 29.757 29.8537 28.2241 29.0911L29.4205 19.0463C29.8078 15.9403 31.1074 13.1149 33.0395 10.8463L33.05 10.8508ZM18.0953 31.0448C18.8983 33.6672 20.0035 36.1642 21.3778 38.4746C20.0708 38.8702 18.9342 39.6403 18.0953 40.6776C17.2563 39.6403 16.1197 38.8716 14.8127 38.4731C16.187 36.1582 17.2922 33.6672 18.0953 31.0448V31.0448ZM3.14051 35.9314H4.83489C5.36877 37.9925 6.98089 39.6194 9.02222 40.1881L10.4594 40.5149C10.075 41.906 9.86417 43.3657 9.86417 44.8881H3.13453V35.9328L3.14051 35.9314ZM31.3601 35.9314H33.0545V44.8866H26.3249C26.3249 43.3731 26.114 41.906 25.7297 40.5134L27.1668 40.1866C29.2156 39.6179 30.8262 37.9896 31.3541 35.9299L31.3601 35.9314ZM13.3845 41.2C15.1985 41.4552 16.5968 43.006 16.5968 44.8851H12.8581C12.8581 43.606 13.048 42.3716 13.3845 41.2ZM22.8015 41.2C23.138 42.3716 23.3279 43.603 23.3279 44.8851H19.5892C19.5892 43.003 20.9875 41.4552 22.8015 41.2ZM13.2006 47.8716H16.5998V54.1552C14.9548 52.4313 13.7584 50.2746 13.2006 47.8716ZM19.5907 47.8716H22.9899C22.4396 50.2746 21.2402 52.4343 19.5907 54.1552V47.8716Z" fill="#FFD423"/>
</g>
<defs>
<clipPath id="clip0_15_76">
<rect width="36.1905" height="60" fill="white"/>
</clipPath>
</defs>
</svg>
