<svg width="64" height="64" viewBox="0 0 64 64" fill="none" xmlns="http://www.w3.org/2000/svg">
<g clip-path="url(#clip0_29_116)">
<path d="M54.063 16H10.063C8.73745 16.0016 7.46661 16.5289 6.52927 17.4662C5.59193 18.4036 5.06464 19.6744 5.06305 21V54C5.06305 54.2652 5.16841 54.5196 5.35594 54.7071C5.54348 54.8946 5.79783 55 6.06305 55H58.063C58.3283 55 58.5826 54.8946 58.7702 54.7071C58.9577 54.5196 59.063 54.2652 59.063 54V21C59.0615 19.6744 58.5342 18.4036 57.5968 17.4662C56.6595 16.5289 55.3886 16.0016 54.063 16Z" fill="#E1EBD3"/>
<path d="M54 20H10C9.44772 20 9 20.4477 9 21V48C9 48.5523 9.44772 49 10 49H54C54.5523 49 55 48.5523 55 48V21C55 20.4477 54.5523 20 54 20Z" fill="#C4CFB2"/>
<path d="M32.063 1C30.2072 1.00212 28.4279 1.7403 27.1156 3.05259C25.8033 4.36489 25.0652 6.14413 25.063 8V14C25.063 14.2652 25.1684 14.5196 25.3559 14.7071C25.5435 14.8946 25.7978 15 26.063 15H38.063C38.3283 15 38.5826 14.8946 38.7702 14.7071C38.9577 14.5196 39.063 14.2652 39.063 14V8C39.0609 6.14413 38.3228 4.36489 37.0105 3.05259C35.6982 1.7403 33.9189 1.00212 32.063 1ZM31.063 8C31.063 7.73478 31.1684 7.48043 31.3559 7.29289C31.5435 7.10536 31.7978 7 32.063 7C32.3283 7 32.5826 7.10536 32.7702 7.29289C32.9577 7.48043 33.063 7.73478 33.063 8V13H31.063V8Z" fill="#444C37"/>
<path d="M39.063 13H25.063C23.4062 13 22.063 14.3431 22.063 16V28C22.063 29.6569 23.4062 31 25.063 31H39.063C40.7199 31 42.063 29.6569 42.063 28V16C42.063 14.3431 40.7199 13 39.063 13Z" fill="#899771"/>
<path d="M46 33H18C15.2386 33 13 35.2386 13 38V42C13 44.7614 15.2386 47 18 47H46C48.7614 47 51 44.7614 51 42V38C51 35.2386 48.7614 33 46 33Z" fill="#899771"/>
<path d="M38.839 37.3C38.6544 37.1096 38.4017 37.0003 38.1366 36.9962C37.8714 36.992 37.6154 37.0934 37.425 37.278L36.04 38.626L34.707 37.293C34.5184 37.1108 34.2658 37.01 34.0036 37.0123C33.7414 37.0146 33.4906 37.1198 33.3052 37.3052C33.1198 37.4906 33.0146 37.7414 33.0123 38.0036C33.0101 38.2658 33.1109 38.5184 33.293 38.707L34.6 40.019L33.3 41.282C33.2057 41.3739 33.1305 41.4835 33.0785 41.6045C33.0266 41.7255 32.999 41.8556 32.9973 41.9873C32.9957 42.1189 33.0199 42.2496 33.0688 42.3719C33.1176 42.4942 33.1901 42.6057 33.282 42.7C33.3739 42.7943 33.4835 42.8695 33.6045 42.9215C33.7256 42.9734 33.8556 43.001 33.9873 43.0027C34.119 43.0043 34.2497 42.9801 34.372 42.9312C34.4943 42.8824 34.6057 42.8099 34.7 42.718L36.023 41.433L37.297 42.707C37.4856 42.8892 37.7382 42.9899 38.0004 42.9877C38.2626 42.9854 38.5134 42.8802 38.6988 42.6948C38.8842 42.5094 38.9894 42.2586 38.9917 41.9964C38.994 41.7342 38.8932 41.4816 38.711 41.293L37.459 40.041L38.821 38.718C38.9156 38.6263 38.9912 38.5167 39.0433 38.3957C39.0955 38.2747 39.1232 38.1445 39.1248 38.0127C39.1265 37.881 39.1021 37.7502 39.0531 37.6278C39.004 37.5055 38.9313 37.3941 38.839 37.3Z" fill="#444C37"/>
<path d="M45.455 40.041L46.817 38.718C46.9125 38.6269 46.989 38.5178 47.0421 38.397C47.0952 38.2761 47.1238 38.146 47.1264 38.0141C47.129 37.8821 47.1054 37.751 47.057 37.6282C47.0087 37.5054 46.9365 37.3934 46.8446 37.2986C46.7528 37.2038 46.6431 37.1282 46.5218 37.076C46.4006 37.0239 46.2702 36.9962 46.1383 36.9947C46.0063 36.9932 45.8754 37.0177 45.7529 37.0671C45.6305 37.1164 45.5191 37.1894 45.425 37.282L44.04 38.626L42.707 37.293C42.5184 37.1109 42.2658 37.0101 42.0036 37.0123C41.7414 37.0146 41.4906 37.1198 41.3052 37.3052C41.1198 37.4906 41.0146 37.7414 41.0124 38.0036C41.0101 38.2658 41.1109 38.5184 41.293 38.707L42.605 40.019L41.305 41.282C41.2108 41.3736 41.1354 41.4829 41.0834 41.6036C41.0313 41.7243 41.0035 41.8541 41.0016 41.9855C40.9997 42.117 41.0237 42.2475 41.0723 42.3697C41.1208 42.4918 41.1929 42.6032 41.2845 42.6975C41.3761 42.7918 41.4854 42.8671 41.6061 42.9192C41.7268 42.9713 41.8566 42.999 41.988 43.0009C42.1195 43.0028 42.25 42.9788 42.3722 42.9303C42.4943 42.8817 42.6058 42.8096 42.7 42.718L44.023 41.433L45.297 42.707C45.4856 42.8892 45.7382 42.99 46.0004 42.9877C46.2626 42.9854 46.5135 42.8802 46.6989 42.6948C46.8843 42.5094 46.9894 42.2586 46.9917 41.9964C46.994 41.7342 46.8932 41.4816 46.711 41.293L45.455 40.041Z" fill="#444C37"/>
<path d="M30.839 37.3C30.6544 37.1096 30.4018 37.0003 30.1366 36.9962C29.8714 36.992 29.6155 37.0934 29.425 37.278L28.04 38.626L26.707 37.293C26.5184 37.1108 26.2658 37.01 26.0036 37.0123C25.7414 37.0146 25.4906 37.1198 25.3052 37.3052C25.1198 37.4906 25.0146 37.7414 25.0124 38.0036C25.0101 38.2658 25.1109 38.5184 25.293 38.707L26.605 40.019L25.305 41.282C25.2108 41.3736 25.1354 41.4829 25.0834 41.6036C25.0313 41.7243 25.0035 41.8541 25.0016 41.9855C24.9978 42.251 25.0996 42.5071 25.2845 42.6975C25.4695 42.8879 25.7226 42.9971 25.988 43.0009C26.2535 43.0047 26.5096 42.903 26.7 42.718L28.023 41.433L29.297 42.707C29.4856 42.8892 29.7382 42.9899 30.0004 42.9877C30.2626 42.9854 30.5135 42.8802 30.6989 42.6948C30.8843 42.5094 30.9894 42.2586 30.9917 41.9964C30.994 41.7342 30.8932 41.4816 30.711 41.293L29.459 40.041L30.821 38.718C30.9157 38.6263 30.9912 38.5167 31.0433 38.3957C31.0955 38.2747 31.1232 38.1445 31.1249 38.0127C31.1265 37.881 31.1021 37.7502 31.0531 37.6278C31.004 37.5055 30.9313 37.3941 30.839 37.3Z" fill="#444C37"/>
<path d="M22.839 37.3C22.6544 37.1096 22.4018 37.0003 22.1366 36.9962C21.8714 36.992 21.6155 37.0934 21.425 37.278L20.04 38.626L18.707 37.293C18.5184 37.1108 18.2658 37.01 18.0036 37.0123C17.7414 37.0146 17.4906 37.1198 17.3052 37.3052C17.1198 37.4906 17.0146 37.7414 17.0124 38.0036C17.0101 38.2658 17.1109 38.5184 17.293 38.707L18.605 40.019L17.305 41.282C17.2108 41.3736 17.1354 41.4829 17.0834 41.6036C17.0313 41.7243 17.0035 41.8541 17.0016 41.9855C16.9978 42.251 17.0996 42.5071 17.2845 42.6975C17.4695 42.8879 17.7226 42.9971 17.988 43.0009C18.2535 43.0047 18.5096 42.903 18.7 42.718L20.023 41.433L21.297 42.707C21.4856 42.8892 21.7382 42.9899 22.0004 42.9877C22.2626 42.9854 22.5135 42.8802 22.6989 42.6948C22.8843 42.5094 22.9894 42.2586 22.9917 41.9964C22.994 41.7342 22.8932 41.4816 22.711 41.293L21.459 40.041L22.821 38.718C22.9157 38.6263 22.9912 38.5167 23.0433 38.3957C23.0955 38.2747 23.1232 38.1445 23.1249 38.0127C23.1265 37.881 23.1021 37.7502 23.0531 37.6278C23.004 37.5055 22.9313 37.3941 22.839 37.3Z" fill="#444C37"/>
<path d="M63.8 53.475C63.7106 53.33 63.5855 53.2102 63.4367 53.1271C63.288 53.0439 63.1204 53.0002 62.95 53H0.950028C0.779637 53.0001 0.612095 53.0437 0.4633 53.1267C0.314504 53.2098 0.189392 53.3294 0.0998333 53.4744C0.0102747 53.6194 -0.0407591 53.7848 -0.0484256 53.955C-0.0560921 54.1252 -0.0201371 54.2946 0.0560278 54.447L4.05603 62.447C4.13902 62.6131 4.26661 62.7528 4.4245 62.8504C4.5824 62.9481 4.76437 62.9999 4.95003 63H58.95C59.1359 63.0001 59.318 62.9484 59.4761 62.8507C59.6342 62.753 59.762 62.6132 59.845 62.447L63.845 54.447C63.9209 54.2946 63.9566 54.1253 63.9487 53.9552C63.9408 53.7851 63.8897 53.6198 63.8 53.475Z" fill="#899771"/>
<path d="M11.382 53L14.105 58.447C14.1881 58.6132 14.3158 58.753 14.4739 58.8507C14.632 58.9484 14.8142 59.0001 15 59H49C49.1867 59.001 49.3699 58.9498 49.529 58.852C49.6881 58.7543 49.8166 58.614 49.9 58.447L52.619 53H11.382Z" fill="#444C37"/>
<path d="M35.18 26.12C34.9966 26.3914 34.7492 26.6136 34.4598 26.7671C34.1703 26.9205 33.8476 27.0005 33.52 27H30.48C30.1533 27.0003 29.8314 26.9206 29.5426 26.7677C29.2538 26.6149 29.0069 26.3936 28.8233 26.1233C28.6398 25.853 28.5253 25.5418 28.4899 25.2169C28.4544 24.8921 28.4991 24.5636 28.62 24.26L29.26 22.66C28.7679 22.0477 28.4997 21.2856 28.5 20.5C28.5 20.0404 28.5906 19.5852 28.7664 19.1606C28.9423 18.736 29.2001 18.3501 29.5252 18.0251C29.8502 17.7001 30.236 17.4423 30.6606 17.2664C31.0853 17.0905 31.5404 17 32 17C32.4597 17 32.9148 17.0905 33.3394 17.2664C33.7641 17.4423 34.1499 17.7001 34.4749 18.0251C34.7999 18.3501 35.0577 18.736 35.2336 19.1606C35.4095 19.5852 35.5 20.0404 35.5 20.5C35.5003 21.2856 35.2322 22.0477 34.74 22.66L35.38 24.26C35.5017 24.5627 35.5471 24.8906 35.5122 25.215C35.4773 25.5393 35.3633 25.8501 35.18 26.12Z" fill="#444C37"/>
</g>
<defs>
<clipPath id="clip0_29_116">
<rect width="64" height="64" fill="white"/>
</clipPath>
</defs>
</svg>
