<svg width="56" height="64" viewBox="0 0 56 64" fill="none" xmlns="http://www.w3.org/2000/svg">
<path d="M55.406 12.086L28.406 0.0860049C28.2782 0.0292187 28.1399 -0.00012207 28 -0.00012207C27.8601 -0.00012207 27.7218 0.0292187 27.594 0.0860049L0.594 12.086C0.417181 12.1646 0.266948 12.2927 0.161514 12.455C0.0560808 12.6172 -2.45488e-05 12.8065 8.05778e-09 13V28.006C0.0227133 34.7781 1.94496 41.4079 5.54821 47.1419C9.15145 52.8758 14.2912 57.4838 20.383 60.442L27.566 63.9C27.7014 63.9652 27.8497 63.9991 28 63.9991C28.1503 63.9991 28.2986 63.9652 28.434 63.9L35.617 60.441C41.7087 57.4829 46.8483 52.8751 50.4515 47.1413C54.0548 41.4076 55.9771 34.7779 56 28.006V13C56 12.8065 55.9439 12.6172 55.8385 12.455C55.7331 12.2927 55.5828 12.1646 55.406 12.086Z" fill="#E1EBD3"/>
<path d="M51.406 14.686L28.406 4.46302C28.2782 4.40623 28.1399 4.37689 28 4.37689C27.8601 4.37689 27.7218 4.40623 27.594 4.46302L4.594 14.686C4.41718 14.7646 4.26695 14.8927 4.16151 15.055C4.05608 15.2172 3.99998 15.4065 4 15.6V28.006C4.02027 34.0257 5.72892 39.919 8.93175 45.016C12.1346 50.113 16.7031 54.2092 22.118 56.839L27.566 59.462C27.7014 59.5272 27.8497 59.5611 28 59.5611C28.1503 59.5611 28.2986 59.5272 28.434 59.462L33.882 56.839C39.2969 54.2092 43.8654 50.113 47.0682 45.016C50.2711 39.919 51.9797 34.0257 52 28.006V15.6C52 15.4065 51.9439 15.2172 51.8385 15.055C51.7331 14.8927 51.5828 14.7646 51.406 14.686Z" fill="#899771"/>
<path d="M35.942 41.664L32.314 31.506C33.1533 30.8551 33.8319 30.0201 34.2976 29.0655C34.7633 28.1109 35.0036 27.0621 35 26C35 24.1435 34.2625 22.363 32.9497 21.0503C31.637 19.7375 29.8565 19 28 19C26.1435 19 24.363 19.7375 23.0503 21.0503C21.7375 22.363 21 24.1435 21 26C20.9964 27.0621 21.2367 28.1109 21.7024 29.0655C22.1681 30.0201 22.8467 30.8551 23.686 31.506L20.058 41.664C20.0042 41.8149 19.9874 41.9766 20.0091 42.1353C20.0307 42.2941 20.0903 42.4453 20.1826 42.5763C20.2749 42.7072 20.3974 42.8141 20.5396 42.8878C20.6819 42.9615 20.8398 43 21 43H35C35.1602 43 35.3181 42.9615 35.4604 42.8878C35.6026 42.8141 35.7251 42.7072 35.8174 42.5763C35.9097 42.4453 35.9693 42.2941 35.9909 42.1353C36.0126 41.9766 35.9958 41.8149 35.942 41.664Z" fill="#444C37"/>
</svg>
