<svg width="24" height="24" viewBox="0 0 24 24" fill="none" xmlns="http://www.w3.org/2000/svg">
<path d="M9.12 0.350625L9.39 1.44187C8.32781 1.70297 7.31156 2.12344 6.375 2.68875L5.7975 1.725C6.82922 1.10203 7.94953 0.638438 9.12 0.350625ZM14.61 1.44187C15.6722 1.70297 16.6884 2.12344 17.625 2.68875L18.2062 1.725C17.1731 1.10156 16.0519 0.638438 14.88 0.350625L14.61 1.44187ZM1.725 5.79703C1.10203 6.82875 0.638438 7.94906 0.350625 9.11906L1.44187 9.38906C1.70297 8.32734 2.12344 7.31063 2.68875 6.37453L1.725 5.79703ZM1.24688 10.3697L0.135 10.2009C-0.045 11.393 -0.045 12.6052 0.135 13.7972L1.24688 13.6284C1.08422 12.5508 1.08422 11.4473 1.24688 10.3697ZM17.625 21.3094C16.6898 21.8742 15.6745 22.2947 14.6138 22.5563L14.8837 23.6475C16.0528 23.3592 17.1717 22.8961 18.2025 22.2731L17.625 21.3094ZM22.7531 13.6284L23.865 13.7972C24.045 12.6052 24.045 11.393 23.865 10.2009L22.7531 10.3697C22.9158 11.4473 22.9158 12.5508 22.7531 13.6284ZM22.5581 14.6091C22.297 15.6708 21.8766 16.6875 21.3113 17.6236L22.275 18.2048C22.8984 17.1717 23.3616 16.0505 23.6494 14.8791L22.5581 14.6091ZM13.6294 22.7531C12.5494 22.9158 11.4506 22.9158 10.3706 22.7531L10.2019 23.865C11.3939 24.045 12.6061 24.045 13.7981 23.865L13.6294 22.7531ZM20.7544 18.4505C20.1056 19.3289 19.3289 20.1047 18.45 20.7525L19.1175 21.6581C20.0873 20.9452 20.9442 20.0911 21.66 19.1236L20.7544 18.4505ZM18.45 3.24563C19.3289 3.89391 20.1061 4.67062 20.7544 5.54953L21.66 4.87453C20.9466 3.9075 20.092 3.05344 19.125 2.34L18.45 3.24563ZM3.24563 5.54953C3.89391 4.67062 4.67109 3.89391 5.55 3.24563L4.875 2.34C3.90797 3.05344 3.05344 3.9075 2.34 4.87453L3.24563 5.54953ZM21.3113 6.37453C21.8761 7.30969 22.2966 8.325 22.5581 9.38531L23.6494 9.11531C23.3611 7.94672 22.8975 6.82781 22.275 5.79703L21.3113 6.37453ZM10.3706 1.24688C11.4506 1.08422 12.5494 1.08422 13.6294 1.24688L13.7981 0.135C12.6061 -0.045 11.3939 -0.045 10.2019 0.135L10.3706 1.24688ZM3.82312 21.9562L1.5 22.4981L2.04188 20.1755L0.946875 19.9186L0.405 22.2413C0.215156 23.0522 0.945938 23.783 1.75688 23.5931L4.07812 23.0606L3.82312 21.9562ZM1.18125 18.9155L2.27625 19.1705L2.65125 17.5598C2.10469 16.6411 1.69734 15.6469 1.44187 14.6091L0.350625 14.8791C0.595312 15.8728 0.967031 16.8314 1.45687 17.7305L1.18125 18.9155ZM4.82062 21.7275L5.07562 22.8225L6.26062 22.5469C7.15969 23.0367 8.11828 23.4084 9.1125 23.6531L9.3825 22.5619C8.34656 22.3036 7.35469 21.8934 6.43875 21.345L4.82062 21.7275ZM3.47016 7.28578C1.755 10.3912 1.86234 14.183 3.75 17.1867L2.8125 21.1856L6.81188 20.2486C10.32 22.4578 14.8411 22.207 18.0839 19.6238C21.3263 17.0409 22.5802 12.69 21.2105 8.77734C18.4312 0.841406 7.51078 -0.0300007 3.47016 7.28578Z" fill="#3A76F0"/>
</svg>
